<?xml version="1.0" encoding="UTF-8"?><svg id="Camada_1" xmlns="http://www.w3.org/2000/svg" viewBox="0 0 237.39 132.68"><defs><style>.cls-1{fill:#fff;}.cls-2{fill:#f67f06;}</style></defs><path class="cls-1" d="M14.01,60.8c-9.66,0-14.01-3.52-14.01-12.35v-21.37h8.9v20.67c0,4.48,1.15,5.63,5.82,5.63h7.17v-26.3h8.9v33.73H14.01Z"/><path class="cls-1" d="M57.02,53.76c3.2,0,4.8-.9,4.8-3.26s-1.6-3.33-4.8-3.33h-7.68c-8.19,0-11.65-1.66-11.65-9.54,0-7.23,3.78-10.56,11.9-10.56h19.13v7.04h-15.74c-4.03,0-6.14.26-6.14,3.07,0,2.11,1.34,3.01,4.22,3.01h8.06c7.42,0,11.33,3.58,11.33,10.05s-3.9,10.56-9.22,10.56h-22.97v-7.04h18.75Z"/><rect class="cls-1" x="76.8" y="27.08" width="9.34" height="33.73"/><path class="cls-1" d="M110.59,27.08c9.98,0,14.08,3.39,14.08,12.35v21.37h-8.9v-20.29c0-4.67-.83-6.02-5.89-6.02h-7.17v26.3h-8.9V27.08h16.77Z"/><path class="cls-1" d="M151.16,27.08c9.22,0,13.89,4.29,13.89,12.61v21.12h-23.93c-6.72,0-10.43-3.52-10.43-9.73,0-7.81,4.03-10.75,13.44-10.75h11.71v-.83c0-4.29-2.43-5.44-8.06-5.44h-14.85v-6.98h18.24ZM155.9,54.02v-6.98h-10.5c-3.78,0-5.5.77-5.5,3.78,0,2.82,1.6,3.2,4.86,3.2h11.14Z"/><path class="cls-2" d="M97.37,74.01c6.28.04,9.4,3.71,8.55,9.75-.35,2.52-1.39,4.6-3.11,6.3-2.26,2.23-4.82,2.84-8.48,2.77l-4.6-.08-.98,6.84-5.29-.12,3.7-25.51,10.21.06ZM90.32,88.71l3.25.05c4.15.06,6.16-1.31,6.75-5.43s-.84-5.24-4.79-5.27l-3.67-.03-1.54,10.68Z"/><path class="cls-2" d="M107.87,93.08l3.62-25.83h5.67s-3.6,25.94-3.6,25.94l-5.69-.1Z"/><path class="cls-2" d="M132.68,74.22c5.8.03,8.43,2.51,7.79,7.28l-1.63,12.15-15.07-.28c-4.18-.08-6.2-2.12-5.71-5.64.61-4.43,3.34-6.07,9.19-6l7.34.08.06-.48c.33-2.45-1.11-3.12-4.64-3.15l-9.24-.08.54-3.94,11.36.07ZM133.58,89.64l.54-4-6.59-.09c-2.36-.03-3.49.39-3.73,2.1-.22,1.6.75,1.84,2.78,1.87l6.99.11Z"/><path class="cls-2" d="M158.35,89.66l1.99-15.28,5.8.03-2.47,19.15c-.67,5.18-3.63,7.63-9.27,7.51l-11.27-.26.53-3.97,10.27.21c2.24.05,3.58-.94,3.82-2.73l.04-.34-5.11-.09c-6.35-.12-8.75-2.16-8.02-7.63l1.59-11.96,5.66.03-1.53,11.6c-.39,2.93.19,3.6,3.33,3.65l4.65.07Z"/><path class="cls-1" d="M190.42,99.58l37.26-23.82s-29.04-13.74-43.52,7.63c0,0-7,16,6.26,16.19Z"/><path class="cls-1" d="M182.31,102.76s.44-.02,1.11-.1c.08.03.17.07.26.1h-1.37Z"/><path class="cls-1" d="M232.68,52.76c-1.36-1.18-2.74-1.85-3.72-2.23l-41.28-22.77c-4.71-1.33-9.6-.76-12,2-3.48,4.01-1.25,14.3,7,20,0,0-22.83,43.68.74,52.9,1.99-.24,6.06-.98,7-3.08l-7.04-3.47s-.04-.01-.12-.05c-1.46-.55-15.74-6.84.42-36.3,0,0,8-21,17-23l-1,2c-15,15-3.78,22.04-3.78,22.04l19.76,6.44,1.02.52c.72.46,9.18,5.72,16,2,.8-.43,2.89-1.61,4-4,2.05-4.41-.61-10.05-4-13ZM208.47,53.87c-3.15,3.79-7.81,5.11-10.41,2.95-2.61-2.16-2.17-6.99.97-10.78,3.15-3.79,7.81-5.11,10.41-2.94,2.61,2.16,2.17,6.98-.97,10.77Z"/></svg>